<?xml version="1.0" encoding="UTF-8" standalone="no"?>
<!-- Generator: Adobe Illustrator 26.0.1, SVG Export Plug-In . SVG Version: 6.00 Build 0)  -->

<svg
   version="1.1"
   id="Layer_1"
   x="0px"
   y="0px"
   viewBox="0 0 527.40753 358.27499"
   xml:space="preserve"
   sodipodi:docname="Logo_Green.svg"
   width="527.40753"
   height="358.27499"
   inkscape:version="1.4 (1:1.4+202410161351+e7c3feb100)"
   xmlns:inkscape="http://www.inkscape.org/namespaces/inkscape"
   xmlns:sodipodi="http://sodipodi.sourceforge.net/DTD/sodipodi-0.dtd"
   xmlns="http://www.w3.org/2000/svg"
   xmlns:svg="http://www.w3.org/2000/svg"><defs
   id="defs4" /><sodipodi:namedview
   id="namedview4"
   pagecolor="#ffffff"
   bordercolor="#000000"
   borderopacity="0.25"
   inkscape:showpageshadow="2"
   inkscape:pageopacity="0.0"
   inkscape:pagecheckerboard="0"
   inkscape:deskcolor="#d1d1d1"
   inkscape:zoom="0.46944444"
   inkscape:cx="263.07692"
   inkscape:cy="180"
   inkscape:window-width="1280"
   inkscape:window-height="728"
   inkscape:window-x="640"
   inkscape:window-y="1080"
   inkscape:window-maximized="1"
   inkscape:current-layer="Layer_1" />
<style
   type="text/css"
   id="style1">
	.st0{fill:#54FE91;}
	.st1{fill:#FFFFFF;}
	.st2{fill:#1D1D1B;}
</style>
<g
   id="g4"
   transform="translate(-411.29,-360.8625)">
	<path
   class="st0"
   d="m 937.38,675.8 c -1.68,6.34 -5,12.33 -9.93,17.35 -15.14,15.39 -39.93,15.58 -55.35,0.44 L 738.8,562.36 c -7.67,-7.53 -11.57,-17.47 -11.68,-27.42 -0.02,-0.18 -0.02,-0.35 0,-0.55 -0.09,-3.64 0.37,-7.28 1.29,-10.78 1.71,-6.36 5.02,-12.35 9.93,-17.35 L 869.57,372.94 c 15.16,-15.39 39.96,-15.6 55.35,-0.41 10.39,10.23 13.85,24.84 10.35,38 -1.68,6.34 -4.98,12.33 -9.91,17.33 l -85.79,87.19 c -10.14,10.28 -10,26.82 0.28,36.94 l 87.17,85.83 c 10.38,10.21 13.86,24.82 10.36,37.98 z"
   id="path1" />
	<g
   id="g3">
		<path
   class="st0"
   d="m 772.4,401.76 c 0,10.46 -4.01,20.92 -11.98,28.92 L 484.25,706.84 c -15.97,15.97 -41.87,15.97 -57.84,0 -8,-7.97 -11.98,-18.46 -11.98,-28.92 0,-10.46 3.99,-20.95 11.98,-28.92 L 542.38,533.03 h -0.12 l 6.36,-6.36 c 3.48,-3.48 5.23,-8.06 5.23,-12.65 0,-4.59 -1.75,-9.17 -5.23,-12.65 -6.98,-6.98 -18.32,-6.98 -25.3,0 l -27.58,27.58 -14.63,14.63 c -15.97,15.97 -41.87,15.97 -57.84,0 -8,-8 -11.98,-18.46 -11.98,-28.92 0,-10.46 3.99,-20.92 11.98,-28.92 l 75.9,-75.9 c 15.97,-15.99 41.87,-15.99 57.84,0 8,8 12.01,18.46 12.01,28.92 0,0.28 0,0.55 -0.02,0.83 h 0.23 c -0.28,1.48 -0.39,2.95 -0.39,4.42 0,6.61 2.53,13.23 7.58,18.3 10.09,10.09 26.48,10.09 36.59,0 L 624.33,451 v 0.09 l 78.25,-78.25 c 15.97,-15.97 41.87,-15.97 57.84,0 7.97,7.99 11.98,18.46 11.98,28.92 z"
   id="path2" />
		<path
   class="st0"
   d="m 738.99,602.32 c 0,10.48 -3.99,20.95 -11.98,28.94 l -75.9,75.9 c -15.97,15.97 -41.87,15.97 -57.84,0 -8,-7.97 -12.01,-18.46 -12.01,-28.92 0,-10.46 4.01,-20.95 12.01,-28.92 l 75.9,-75.92 c 15.97,-15.97 41.87,-15.97 57.84,0 7.99,8 11.98,18.46 11.98,28.92 z"
   id="path3" />
	</g>
</g>
</svg>
