<?xml version="1.0" encoding="utf-8"?>
<!-- Generator: Adobe Illustrator 26.0.1, SVG Export Plug-In . SVG Version: 6.00 Build 0)  -->
<svg version="1.1" id="Layer_1" xmlns="http://www.w3.org/2000/svg" xmlns:xlink="http://www.w3.org/1999/xlink" x="0px" y="0px"
	 viewBox="0 0 1350 1080" style="enable-background:new 0 0 1350 1080;" xml:space="preserve">
<style type="text/css">
	.st0{fill:#54FE91;}
	.st1{fill:#FFFFFF;}
	.st2{fill:#1D1D1B;}
</style>
<g>
	<g>
		<path class="st0" d="M497.41,605.61c-0.81,3.06-2.42,5.96-4.8,8.38c-7.31,7.44-19.29,7.53-26.74,0.21l-64.4-63.4
			c-3.71-3.64-5.59-8.44-5.64-13.25c-0.01-0.09-0.01-0.17,0-0.27c-0.04-1.76,0.18-3.52,0.62-5.21c0.82-3.07,2.43-5.97,4.8-8.38
			l63.4-64.41c7.33-7.44,19.3-7.54,26.74-0.2c5.02,4.94,6.69,12,5,18.36c-0.81,3.06-2.4,5.96-4.79,8.37l-41.45,42.12
			c-4.9,4.97-4.83,12.96,0.13,17.85l42.11,41.47C497.42,592.19,499.1,599.25,497.41,605.61z"/>
		<g>
			<path class="st0" d="M417.7,473.21c0,5.05-1.94,10.11-5.79,13.97L278.49,620.6c-7.71,7.71-20.23,7.71-27.94,0
				c-3.86-3.85-5.79-8.92-5.79-13.97c0-5.05,1.93-10.12,5.79-13.97l56.03-56.03h-0.06l3.07-3.07c1.68-1.68,2.53-3.9,2.53-6.11
				s-0.85-4.43-2.53-6.11c-3.37-3.37-8.85-3.37-12.22,0l-13.33,13.33l-7.07,7.07c-7.71,7.71-20.23,7.71-27.94,0
				c-3.86-3.86-5.79-8.92-5.79-13.97c0-5.05,1.93-10.11,5.79-13.97l36.67-36.67c7.71-7.73,20.23-7.73,27.94,0
				c3.86,3.86,5.8,8.92,5.8,13.97c0,0.13,0,0.27-0.01,0.4h0.11c-0.13,0.71-0.19,1.42-0.19,2.14c0,3.2,1.22,6.39,3.66,8.84
				c4.88,4.88,12.79,4.88,17.68,0l5.47-5.47v0.04l37.81-37.81c7.71-7.71,20.23-7.71,27.94,0C415.77,463.1,417.7,468.16,417.7,473.21
				z"/>
			<path class="st0" d="M401.56,570.11c0,5.07-1.93,10.12-5.79,13.98l-36.67,36.67c-7.71,7.71-20.23,7.71-27.94,0
				c-3.86-3.85-5.8-8.92-5.8-13.97c0-5.05,1.94-10.12,5.8-13.97l36.67-36.68c7.71-7.71,20.23-7.71,27.94,0
				C399.64,560,401.56,565.05,401.56,570.11z"/>
		</g>
	</g>
	<g>
		<path class="st1" d="M569.06,515.53c-1.34-1.34-2-2.97-2-4.9c0-1.93,0.67-3.56,2-4.9s2.97-2,4.9-2c1.85,0,3.43,0.67,4.73,2
			c1.3,1.34,1.95,2.97,1.95,4.9c0,1.93-0.65,3.56-1.95,4.9c-1.3,1.34-2.88,2-4.73,2C572.03,517.54,570.4,516.87,569.06,515.53z
			 M578.86,527.44v61.01h-10.13v-61.01H578.86z"/>
		<path class="st1" d="M604.69,579.65h37.85v8.79h-49.87v-8.02l37.63-60.78h-37.18v-8.8h49.21v8.02L604.69,579.65z"/>
		<path class="st1" d="M656.34,541.3c2.52-4.71,5.99-8.37,10.41-10.97c4.41-2.6,9.33-3.9,14.75-3.9c5.34,0,9.98,1.15,13.92,3.45
			c3.93,2.3,6.86,5.2,8.79,8.68v-11.13h10.24v61.01h-10.24v-11.36c-2,3.56-4.99,6.51-8.96,8.85c-3.97,2.34-8.59,3.51-13.86,3.51
			c-5.42,0-10.32-1.34-14.69-4.01c-4.38-2.67-7.83-6.42-10.35-11.24c-2.52-4.82-3.79-10.31-3.79-16.48
			C652.55,551.49,653.81,546.02,656.34,541.3z M701.42,545.81c-1.86-3.41-4.36-6.03-7.51-7.85c-3.16-1.82-6.62-2.73-10.41-2.73
			c-3.78,0-7.24,0.89-10.35,2.67c-3.12,1.78-5.6,4.38-7.46,7.79c-1.86,3.41-2.78,7.42-2.78,12.02c0,4.67,0.93,8.74,2.78,12.19
			c1.85,3.45,4.34,6.09,7.46,7.9c3.12,1.82,6.57,2.73,10.35,2.73c3.79,0,7.25-0.91,10.41-2.73c3.15-1.82,5.66-4.45,7.51-7.9
			c1.85-3.45,2.78-7.48,2.78-12.08C704.21,553.23,703.28,549.23,701.42,545.81z"/>
		<path class="st1" d="M765.66,588.45l-23.93-26.94v26.94h-10.13v-82.38h10.13v48.43l23.49-27.05h14.14l-28.72,30.39l28.83,30.61
			H765.66z"/>
		<path class="st1" d="M819.98,529.17c3.41-6.05,8.07-10.78,13.97-14.19c5.9-3.41,12.45-5.12,19.65-5.12
			c8.46,0,15.85,2.04,22.15,6.12c6.31,4.08,10.91,9.87,13.8,17.37h-12.13c-2.15-4.68-5.25-8.27-9.3-10.8
			c-4.05-2.52-8.89-3.78-14.53-3.78c-5.42,0-10.28,1.26-14.58,3.78c-4.31,2.52-7.68,6.11-10.13,10.74
			c-2.45,4.64-3.67,10.07-3.67,16.31c0,6.16,1.23,11.56,3.67,16.2c2.45,4.64,5.82,8.22,10.13,10.74c4.3,2.52,9.16,3.79,14.58,3.79
			c5.64,0,10.48-1.24,14.53-3.73c4.04-2.49,7.14-6.07,9.3-10.74h12.13c-2.9,7.42-7.5,13.16-13.8,17.2
			c-6.31,4.05-13.69,6.07-22.15,6.07c-7.2,0-13.75-1.69-19.65-5.07c-5.9-3.38-10.56-8.07-13.97-14.08
			c-3.41-6.01-5.12-12.8-5.12-20.37C814.86,542.03,816.57,535.22,819.98,529.17z"/>
		<path class="st1" d="M915.66,585.56c-4.64-2.6-8.28-6.29-10.91-11.08c-2.64-4.79-3.95-10.33-3.95-16.64
			c0-6.23,1.35-11.74,4.06-16.53c2.71-4.79,6.4-8.46,11.08-11.02c4.67-2.56,9.91-3.84,15.7-3.84c5.79,0,11.02,1.28,15.7,3.84
			c4.68,2.56,8.37,6.22,11.08,10.96c2.71,4.75,4.06,10.28,4.06,16.59c0,6.31-1.39,11.86-4.17,16.64c-2.78,4.79-6.55,8.48-11.3,11.08
			c-4.75,2.6-10.02,3.9-15.81,3.9C925.48,589.45,920.3,588.15,915.66,585.56z M941.43,577.98c3.19-1.71,5.77-4.27,7.74-7.68
			c1.97-3.41,2.95-7.57,2.95-12.47s-0.97-9.05-2.9-12.47c-1.93-3.41-4.45-5.96-7.57-7.63c-3.12-1.67-6.49-2.5-10.13-2.5
			c-3.71,0-7.11,0.83-10.19,2.5c-3.08,1.67-5.55,4.21-7.4,7.63c-1.86,3.41-2.78,7.57-2.78,12.47c0,4.97,0.91,9.17,2.73,12.58
			c1.82,3.41,4.25,5.96,7.29,7.63c3.04,1.67,6.38,2.5,10.02,2.5C934.83,580.55,938.24,579.69,941.43,577.98z"/>
		<path class="st1" d="M975.83,541.3c2.52-4.71,5.99-8.37,10.41-10.97c4.41-2.6,9.37-3.9,14.86-3.9c4.75,0,9.16,1.1,13.25,3.28
			c4.08,2.19,7.2,5.07,9.35,8.63v-32.28h10.24v82.38h-10.24v-11.47c-2,3.64-4.97,6.62-8.91,8.96c-3.93,2.34-8.54,3.51-13.8,3.51
			c-5.42,0-10.34-1.34-14.75-4.01c-4.42-2.67-7.89-6.42-10.41-11.24c-2.52-4.82-3.79-10.31-3.79-16.48
			C972.05,551.49,973.31,546.02,975.83,541.3z M1020.92,545.81c-1.86-3.41-4.36-6.03-7.51-7.85c-3.16-1.82-6.62-2.73-10.41-2.73
			c-3.78,0-7.24,0.89-10.35,2.67c-3.12,1.78-5.6,4.38-7.46,7.79c-1.86,3.41-2.78,7.42-2.78,12.02c0,4.67,0.93,8.74,2.78,12.19
			c1.85,3.45,4.34,6.09,7.46,7.9c3.12,1.82,6.57,2.73,10.35,2.73c3.79,0,7.25-0.91,10.41-2.73c3.15-1.82,5.66-4.45,7.51-7.9
			c1.85-3.45,2.78-7.48,2.78-12.08C1023.7,553.23,1022.77,549.23,1020.92,545.81z"/>
		<path class="st1" d="M1106.42,561.73h-48.76c0.37,6.01,2.43,10.71,6.18,14.08c3.75,3.38,8.29,5.07,13.64,5.07
			c4.38,0,8.03-1.02,10.96-3.06c2.93-2.04,4.99-4.77,6.18-8.18h10.91c-1.63,5.86-4.9,10.63-9.8,14.31
			c-4.9,3.67-10.98,5.51-18.26,5.51c-5.79,0-10.97-1.3-15.53-3.9c-4.56-2.6-8.15-6.29-10.74-11.08c-2.6-4.79-3.9-10.33-3.9-16.64
			c0-6.31,1.26-11.84,3.79-16.59c2.52-4.75,6.07-8.4,10.63-10.96c4.56-2.56,9.81-3.84,15.75-3.84c5.79,0,10.91,1.26,15.36,3.79
			c4.45,2.52,7.89,5.99,10.3,10.41c2.41,4.42,3.62,9.41,3.62,14.97C1106.75,557.54,1106.64,559.58,1106.42,561.73z M1093.73,543.53
			c-1.71-2.78-4.03-4.9-6.96-6.35c-2.93-1.45-6.18-2.17-9.74-2.17c-5.12,0-9.48,1.63-13.08,4.9c-3.6,3.27-5.66,7.79-6.18,13.58
			h38.52C1096.29,549.64,1095.43,546.31,1093.73,543.53z"/>
	</g>
</g>
</svg>
