<?xml version="1.0" encoding="UTF-8" standalone="no"?>
<!-- Generator: Adobe Illustrator 26.0.1, SVG Export Plug-In . SVG Version: 6.00 Build 0)  -->

<svg
   version="1.1"
   id="Layer_1"
   x="0px"
   y="0px"
   viewBox="0 0 863.51001 173.08501"
   xml:space="preserve"
   sodipodi:docname="Logo_H_G&amp;W.svg"
   width="863.51001"
   height="173.08501"
   inkscape:version="1.4 (1:1.4+202410161351+e7c3feb100)"
   xmlns:inkscape="http://www.inkscape.org/namespaces/inkscape"
   xmlns:sodipodi="http://sodipodi.sourceforge.net/DTD/sodipodi-0.dtd"
   xmlns="http://www.w3.org/2000/svg"
   xmlns:svg="http://www.w3.org/2000/svg"><defs
   id="defs12" /><sodipodi:namedview
   id="namedview12"
   pagecolor="#ffffff"
   bordercolor="#000000"
   borderopacity="0.25"
   inkscape:showpageshadow="2"
   inkscape:pageopacity="0.0"
   inkscape:pagecheckerboard="0"
   inkscape:deskcolor="#d1d1d1"
   showgrid="false"
   inkscape:zoom="0.63377719"
   inkscape:cx="486.76413"
   inkscape:cy="169.61797"
   inkscape:window-width="1280"
   inkscape:window-height="728"
   inkscape:window-x="640"
   inkscape:window-y="1080"
   inkscape:window-maximized="1"
   inkscape:current-layer="Layer_1" />
<style
   type="text/css"
   id="style1">
	.st0{fill:#54FE91;}
	.st1{fill:#FFFFFF;}
	.st2{fill:#1D1D1B;}
</style>
<g
   id="g12"
   transform="translate(-243.24,-453.4575)">
	<g
   id="g4">
		<path
   class="st0"
   d="m 497.41,605.61 c -0.81,3.06 -2.42,5.96 -4.8,8.38 -7.31,7.44 -19.29,7.53 -26.74,0.21 l -64.4,-63.4 c -3.71,-3.64 -5.59,-8.44 -5.64,-13.25 -0.01,-0.09 -0.01,-0.17 0,-0.27 -0.04,-1.76 0.18,-3.52 0.62,-5.21 0.82,-3.07 2.43,-5.97 4.8,-8.38 l 63.4,-64.41 c 7.33,-7.44 19.3,-7.54 26.74,-0.2 5.02,4.94 6.69,12 5,18.36 -0.81,3.06 -2.4,5.96 -4.79,8.37 l -41.45,42.12 c -4.9,4.97 -4.83,12.96 0.13,17.85 l 42.11,41.47 c 5.03,4.94 6.71,12 5.02,18.36 z"
   id="path1" />
		<g
   id="g3">
			<path
   class="st0"
   d="m 417.7,473.21 c 0,5.05 -1.94,10.11 -5.79,13.97 L 278.49,620.6 c -7.71,7.71 -20.23,7.71 -27.94,0 -3.86,-3.85 -5.79,-8.92 -5.79,-13.97 0,-5.05 1.93,-10.12 5.79,-13.97 l 56.03,-56.03 h -0.06 l 3.07,-3.07 c 1.68,-1.68 2.53,-3.9 2.53,-6.11 0,-2.21 -0.85,-4.43 -2.53,-6.11 -3.37,-3.37 -8.85,-3.37 -12.22,0 l -13.33,13.33 -7.07,7.07 c -7.71,7.71 -20.23,7.71 -27.94,0 -3.86,-3.86 -5.79,-8.92 -5.79,-13.97 0,-5.05 1.93,-10.11 5.79,-13.97 l 36.67,-36.67 c 7.71,-7.73 20.23,-7.73 27.94,0 3.86,3.86 5.8,8.92 5.8,13.97 0,0.13 0,0.27 -0.01,0.4 h 0.11 c -0.13,0.71 -0.19,1.42 -0.19,2.14 0,3.2 1.22,6.39 3.66,8.84 4.88,4.88 12.79,4.88 17.68,0 l 5.47,-5.47 v 0.04 l 37.81,-37.81 c 7.71,-7.71 20.23,-7.71 27.94,0 3.86,3.86 5.79,8.92 5.79,13.97 z"
   id="path2" />
			<path
   class="st0"
   d="m 401.56,570.11 c 0,5.07 -1.93,10.12 -5.79,13.98 l -36.67,36.67 c -7.71,7.71 -20.23,7.71 -27.94,0 -3.86,-3.85 -5.8,-8.92 -5.8,-13.97 0,-5.05 1.94,-10.12 5.8,-13.97 l 36.67,-36.68 c 7.71,-7.71 20.23,-7.71 27.94,0 3.87,3.86 5.79,8.91 5.79,13.97 z"
   id="path3" />
		</g>
	</g>
	<g
   id="g11">
		<path
   class="st1"
   d="m 569.06,515.53 c -1.34,-1.34 -2,-2.97 -2,-4.9 0,-1.93 0.67,-3.56 2,-4.9 1.33,-1.34 2.97,-2 4.9,-2 1.85,0 3.43,0.67 4.73,2 1.3,1.34 1.95,2.97 1.95,4.9 0,1.93 -0.65,3.56 -1.95,4.9 -1.3,1.34 -2.88,2 -4.73,2 -1.93,0.01 -3.56,-0.66 -4.9,-2 z m 9.8,11.91 v 61.01 h -10.13 v -61.01 z"
   id="path4" />
		<path
   class="st1"
   d="m 604.69,579.65 h 37.85 v 8.79 h -49.87 v -8.02 l 37.63,-60.78 h -37.18 v -8.8 h 49.21 v 8.02 z"
   id="path5" />
		<path
   class="st1"
   d="m 656.34,541.3 c 2.52,-4.71 5.99,-8.37 10.41,-10.97 4.41,-2.6 9.33,-3.9 14.75,-3.9 5.34,0 9.98,1.15 13.92,3.45 3.93,2.3 6.86,5.2 8.79,8.68 v -11.13 h 10.24 v 61.01 h -10.24 v -11.36 c -2,3.56 -4.99,6.51 -8.96,8.85 -3.97,2.34 -8.59,3.51 -13.86,3.51 -5.42,0 -10.32,-1.34 -14.69,-4.01 -4.38,-2.67 -7.83,-6.42 -10.35,-11.24 -2.52,-4.82 -3.79,-10.31 -3.79,-16.48 -0.01,-6.22 1.25,-11.69 3.78,-16.41 z m 45.08,4.51 c -1.86,-3.41 -4.36,-6.03 -7.51,-7.85 -3.16,-1.82 -6.62,-2.73 -10.41,-2.73 -3.78,0 -7.24,0.89 -10.35,2.67 -3.12,1.78 -5.6,4.38 -7.46,7.79 -1.86,3.41 -2.78,7.42 -2.78,12.02 0,4.67 0.93,8.74 2.78,12.19 1.85,3.45 4.34,6.09 7.46,7.9 3.12,1.82 6.57,2.73 10.35,2.73 3.79,0 7.25,-0.91 10.41,-2.73 3.15,-1.82 5.66,-4.45 7.51,-7.9 1.85,-3.45 2.78,-7.48 2.78,-12.08 0.01,-4.59 -0.92,-8.59 -2.78,-12.01 z"
   id="path6" />
		<path
   class="st1"
   d="m 765.66,588.45 -23.93,-26.94 v 26.94 H 731.6 v -82.38 h 10.13 v 48.43 l 23.49,-27.05 h 14.14 l -28.72,30.39 28.83,30.61 z"
   id="path7" />
		<path
   class="st1"
   d="m 819.98,529.17 c 3.41,-6.05 8.07,-10.78 13.97,-14.19 5.9,-3.41 12.45,-5.12 19.65,-5.12 8.46,0 15.85,2.04 22.15,6.12 6.31,4.08 10.91,9.87 13.8,17.37 h -12.13 c -2.15,-4.68 -5.25,-8.27 -9.3,-10.8 -4.05,-2.52 -8.89,-3.78 -14.53,-3.78 -5.42,0 -10.28,1.26 -14.58,3.78 -4.31,2.52 -7.68,6.11 -10.13,10.74 -2.45,4.64 -3.67,10.07 -3.67,16.31 0,6.16 1.23,11.56 3.67,16.2 2.45,4.64 5.82,8.22 10.13,10.74 4.3,2.52 9.16,3.79 14.58,3.79 5.64,0 10.48,-1.24 14.53,-3.73 4.04,-2.49 7.14,-6.07 9.3,-10.74 h 12.13 c -2.9,7.42 -7.5,13.16 -13.8,17.2 -6.31,4.05 -13.69,6.07 -22.15,6.07 -7.2,0 -13.75,-1.69 -19.65,-5.07 -5.9,-3.38 -10.56,-8.07 -13.97,-14.08 -3.41,-6.01 -5.12,-12.8 -5.12,-20.37 0,-7.58 1.71,-14.39 5.12,-20.44 z"
   id="path8" />
		<path
   class="st1"
   d="m 915.66,585.56 c -4.64,-2.6 -8.28,-6.29 -10.91,-11.08 -2.64,-4.79 -3.95,-10.33 -3.95,-16.64 0,-6.23 1.35,-11.74 4.06,-16.53 2.71,-4.79 6.4,-8.46 11.08,-11.02 4.67,-2.56 9.91,-3.84 15.7,-3.84 5.79,0 11.02,1.28 15.7,3.84 4.68,2.56 8.37,6.22 11.08,10.96 2.71,4.75 4.06,10.28 4.06,16.59 0,6.31 -1.39,11.86 -4.17,16.64 -2.78,4.79 -6.55,8.48 -11.3,11.08 -4.75,2.6 -10.02,3.9 -15.81,3.9 -5.72,-0.01 -10.9,-1.31 -15.54,-3.9 z m 25.77,-7.58 c 3.19,-1.71 5.77,-4.27 7.74,-7.68 1.97,-3.41 2.95,-7.57 2.95,-12.47 0,-4.9 -0.97,-9.05 -2.9,-12.47 -1.93,-3.41 -4.45,-5.96 -7.57,-7.63 -3.12,-1.67 -6.49,-2.5 -10.13,-2.5 -3.71,0 -7.11,0.83 -10.19,2.5 -3.08,1.67 -5.55,4.21 -7.4,7.63 -1.86,3.41 -2.78,7.57 -2.78,12.47 0,4.97 0.91,9.17 2.73,12.58 1.82,3.41 4.25,5.96 7.29,7.63 3.04,1.67 6.38,2.5 10.02,2.5 3.64,0.01 7.05,-0.85 10.24,-2.56 z"
   id="path9" />
		<path
   class="st1"
   d="m 975.83,541.3 c 2.52,-4.71 5.99,-8.37 10.41,-10.97 4.41,-2.6 9.37,-3.9 14.86,-3.9 4.75,0 9.16,1.1 13.25,3.28 4.08,2.19 7.2,5.07 9.35,8.63 v -32.28 h 10.24 v 82.38 h -10.24 v -11.47 c -2,3.64 -4.97,6.62 -8.91,8.96 -3.93,2.34 -8.54,3.51 -13.8,3.51 -5.42,0 -10.34,-1.34 -14.75,-4.01 -4.42,-2.67 -7.89,-6.42 -10.41,-11.24 -2.52,-4.82 -3.79,-10.31 -3.79,-16.48 0.01,-6.22 1.27,-11.69 3.79,-16.41 z m 45.09,4.51 c -1.86,-3.41 -4.36,-6.03 -7.51,-7.85 -3.16,-1.82 -6.62,-2.73 -10.41,-2.73 -3.78,0 -7.24,0.89 -10.35,2.67 -3.12,1.78 -5.6,4.38 -7.46,7.79 -1.86,3.41 -2.78,7.42 -2.78,12.02 0,4.67 0.93,8.74 2.78,12.19 1.85,3.45 4.34,6.09 7.46,7.9 3.12,1.82 6.57,2.73 10.35,2.73 3.79,0 7.25,-0.91 10.41,-2.73 3.15,-1.82 5.66,-4.45 7.51,-7.9 1.85,-3.45 2.78,-7.48 2.78,-12.08 0,-4.59 -0.93,-8.59 -2.78,-12.01 z"
   id="path10" />
		<path
   class="st1"
   d="m 1106.42,561.73 h -48.76 c 0.37,6.01 2.43,10.71 6.18,14.08 3.75,3.38 8.29,5.07 13.64,5.07 4.38,0 8.03,-1.02 10.96,-3.06 2.93,-2.04 4.99,-4.77 6.18,-8.18 h 10.91 c -1.63,5.86 -4.9,10.63 -9.8,14.31 -4.9,3.67 -10.98,5.51 -18.26,5.51 -5.79,0 -10.97,-1.3 -15.53,-3.9 -4.56,-2.6 -8.15,-6.29 -10.74,-11.08 -2.6,-4.79 -3.9,-10.33 -3.9,-16.64 0,-6.31 1.26,-11.84 3.79,-16.59 2.52,-4.75 6.07,-8.4 10.63,-10.96 4.56,-2.56 9.81,-3.84 15.75,-3.84 5.79,0 10.91,1.26 15.36,3.79 4.45,2.52 7.89,5.99 10.3,10.41 2.41,4.42 3.62,9.41 3.62,14.97 0,1.92 -0.11,3.96 -0.33,6.11 z m -12.69,-18.2 c -1.71,-2.78 -4.03,-4.9 -6.96,-6.35 -2.93,-1.45 -6.18,-2.17 -9.74,-2.17 -5.12,0 -9.48,1.63 -13.08,4.9 -3.6,3.27 -5.66,7.79 -6.18,13.58 h 38.52 c 0,-3.85 -0.86,-7.18 -2.56,-9.96 z"
   id="path11" />
	</g>
</g>
</svg>
